<?xml version="1.0" standalone="no"?>
<!DOCTYPE svg PUBLIC "-//W3C//DTD SVG 20010904//EN"
 "http://www.w3.org/TR/2001/REC-SVG-20010904/DTD/svg10.dtd">
<svg version="1.0" xmlns="http://www.w3.org/2000/svg"
 width="300.000000pt" height="300.000000pt" viewBox="0 0 300.000000 300.000000"
 preserveAspectRatio="xMidYMid meet">

<g transform="translate(0.000000,300.000000) scale(0.100000,-0.100000)"
fill="#000000" stroke="none">
<path d="M1445 2924 c-110 -9 -225 -31 -375 -71 -255 -70 -307 -82 -399 -92
-95 -10 -211 -1 -298 24 -30 9 -56 15 -58 13 -4 -4 -41 -231 -55 -333 -73
-558 14 -1099 240 -1497 28 -49 50 -92 50 -96 0 -12 -166 -122 -182 -122 -7 0
-23 18 -36 41 -13 22 -30 43 -38 46 -17 6 -106 -37 -148 -71 l-30 -25 47 -54
c160 -187 204 -232 228 -232 13 0 31 -8 39 -18 8 -10 26 -23 39 -30 14 -7 28
-25 32 -40 10 -39 27 -57 54 -57 12 0 80 38 150 85 70 46 136 87 146 90 12 4
48 -20 121 -81 120 -100 282 -210 420 -284 l97 -51 68 37 c211 116 360 213
487 315 131 107 104 107 261 1 171 -116 182 -117 264 -34 32 32 61 68 65 80 4
12 22 28 40 36 23 10 57 48 121 136 86 121 87 124 72 149 -22 37 -87 81 -130
88 -34 5 -40 2 -75 -37 l-38 -43 -62 43 c-34 24 -62 47 -62 52 0 4 21 40 46
79 66 102 156 295 198 425 60 190 78 309 83 564 5 256 -4 357 -63 661 l-36
186 -73 -28 c-168 -65 -286 -60 -525 23 -331 114 -466 138 -685 122z m311 -59
c49 -9 181 -47 294 -85 113 -38 229 -74 258 -79 108 -22 209 -12 367 34 19 6
23 -4 48 -137 45 -232 57 -333 64 -513 14 -395 -68 -731 -255 -1051 -57 -98
-159 -234 -175 -234 -8 0 -34 13 -58 30 -25 16 -91 48 -148 70 -200 81 -367
118 -562 127 -253 11 -497 -41 -742 -159 -43 -21 -82 -38 -87 -38 -6 0 -10 -4
-10 -10 0 -10 -52 -40 -69 -40 -5 0 -34 37 -64 82 -262 397 -374 886 -327
1438 11 133 50 414 60 430 4 7 29 6 79 -5 151 -32 281 -17 576 64 173 47 301
76 375 84 94 10 295 6 376 -8z m99 -1899 c196 -45 433 -144 620 -259 l70 -43
-1 -137 c-1 -117 -4 -141 -19 -157 -30 -33 -74 -25 -140 23 -226 162 -441 264
-650 308 -87 19 -313 16 -410 -5 -211 -46 -413 -138 -652 -298 -56 -37 -109
-68 -117 -68 -20 0 -27 15 -66 147 -26 87 -30 115 -21 126 21 26 208 146 313
201 115 61 249 115 359 146 153 41 227 49 414 46 154 -2 197 -7 300 -30z m737
-172 c78 -53 112 -82 111 -94 -5 -39 -85 -227 -108 -255 l-26 -30 4 155 5 155
-65 63 c-56 55 -71 82 -43 82 4 0 59 -34 122 -76z m210 31 c65 -43 65 -47 -26
-177 -117 -169 -129 -167 -65 9 31 85 32 95 20 125 -7 18 -15 44 -18 57 -5 22
-4 23 23 17 16 -4 46 -18 66 -31z m-2222 2 c0 -7 -34 -46 -76 -87 -93 -92
-100 -104 -81 -134 18 -27 61 -166 53 -173 -10 -10 -25 10 -96 133 -57 99 -70
128 -59 135 8 5 19 9 24 9 6 0 53 29 105 64 93 64 130 79 130 53z m2138 -71
c-3 -13 -7 -13 -35 1 -37 18 -40 28 -16 55 16 18 17 18 36 -11 10 -17 17 -37
15 -45z m-2437 15 c-18 -34 -13 -50 54 -167 99 -172 86 -179 -48 -28 -49 54
-100 114 -114 132 -25 32 -25 33 -7 47 10 8 42 26 69 40 41 21 51 23 53 11 2
-8 -2 -24 -7 -35z m2229 -3 c19 -15 50 -59 50 -70 0 -15 -18 -8 -79 28 -74 44
-78 50 -56 74 19 21 22 20 85 -32z m-1886 8 c16 -25 15 -25 -80 -91 -53 -36
-101 -64 -107 -62 -11 4 149 177 164 177 4 0 14 -11 23 -24z m-296 -16 c15
-25 8 -40 -19 -40 -19 0 -24 15 -13 44 8 21 17 20 32 -4z m1467 -103 c111 -30
261 -84 293 -105 l25 -16 -34 -29 c-129 -109 -316 -236 -497 -336 l-94 -52
-86 47 c-153 82 -311 193 -462 322 l-35 30 45 20 c57 26 243 96 295 112 162
47 393 50 550 7z"/>
<path d="M1494 2474 c5 -26 2 -46 -13 -75 -27 -51 -27 -59 1 -24 12 16 25 47
28 69 l5 41 20 -29 c14 -21 19 -43 17 -82 -1 -31 5 -70 14 -94 22 -56 29 -44
8 15 -10 31 -14 63 -10 87 7 41 -3 68 -37 106 -30 32 -40 28 -33 -14z"/>
<path d="M1447 2333 c-4 -3 -7 -16 -6 -27 0 -19 1 -19 10 3 10 24 8 36 -4 24z"/>
<path d="M1431 2185 c-4 -123 -12 -162 -32 -155 -27 9 -120 5 -127 -6 -4 -6
-16 -14 -28 -18 -12 -3 -26 -18 -32 -31 -6 -14 -20 -25 -30 -25 -14 0 -34 -39
-91 -181 -40 -100 -71 -182 -69 -184 2 -2 27 1 57 7 35 6 57 6 64 -1 10 -10
15 -86 6 -95 -3 -4 -22 1 -42 9 -20 8 -48 15 -62 15 -32 0 -85 -26 -85 -42 0
-6 -7 -19 -16 -29 -19 -21 -12 -49 14 -55 9 -3 36 -38 59 -78 105 -179 137
-201 292 -194 75 4 106 10 144 28 l47 24 46 -22 c88 -43 237 -47 312 -8 52 27
142 145 142 186 0 18 53 70 71 70 12 0 15 7 11 25 -2 14 -8 25 -13 25 -5 0
-14 11 -20 24 -21 45 -79 57 -142 31 -20 -8 -39 -15 -42 -15 -3 0 -5 23 -5 50
0 28 5 50 10 50 6 0 10 7 10 15 0 12 10 14 55 9 l54 -7 -64 138 c-35 75 -67
140 -70 143 -9 9 8 -32 50 -123 20 -44 43 -94 51 -112 l14 -32 -79 6 c-104 8
-140 0 -189 -42 -25 -22 -43 -31 -47 -25 -15 25 62 76 135 91 31 6 32 7 7 8
-30 1 -109 -33 -128 -55 -16 -20 -29 -17 -29 5 0 46 107 98 182 88 21 -3 38
-1 38 5 0 5 -34 75 -76 154 -71 135 -75 145 -53 142 19 -2 37 -30 101 -158 42
-85 77 -160 77 -167 1 -6 -9 -14 -21 -16 -17 -3 -14 -5 10 -6 17 0 32 1 32 4
0 3 -31 68 -70 145 -38 77 -70 144 -70 150 0 21 21 9 40 -22 23 -39 27 -30 5
12 -9 18 -24 30 -35 30 -11 0 -25 9 -32 20 -7 11 -20 20 -28 20 -9 0 -25 7
-36 15 -10 8 -31 15 -45 15 -29 0 -37 17 -41 80 0 19 -4 -17 -7 -80 -6 -109
-8 -118 -44 -182 -21 -37 -42 -70 -47 -73 -12 -8 -75 55 -85 84 -4 12 -9 20
-12 18 -7 -8 17 -49 49 -83 38 -40 34 -54 -36 -122 l-55 -54 -33 25 c-18 14
-46 28 -63 31 l-30 6 32 -11 c45 -16 98 -63 89 -78 -6 -9 -16 -6 -39 12 -46
34 -92 47 -161 45 l-61 -1 75 -6 c88 -8 170 -47 170 -81 0 -27 -8 -25 -32 5
-11 14 -33 32 -48 40 -32 17 -146 21 -152 5 -4 -12 -88 -25 -88 -13 0 5 29 80
64 168 40 100 70 161 80 163 12 3 11 -8 -10 -58 -14 -34 -23 -64 -21 -66 2 -2
16 29 32 68 15 40 34 83 41 96 20 31 37 28 31 -5 -4 -21 -2 -18 10 10 19 45
48 55 101 35 35 -13 37 -16 43 -68 4 -43 6 -47 7 -18 1 20 7 59 12 85 6 27 9
98 7 158 l-3 110 -3 -100z m335 -315 l82 -155 -58 -7 c-64 -7 -105 -25 -134
-57 -11 -12 -22 -21 -26 -21 -3 0 -30 31 -58 69 l-52 68 40 61 c27 40 44 80
52 119 16 86 15 85 45 81 25 -3 37 -20 109 -158z m-221 -462 c14 -6 25 -17 25
-25 0 -17 -5 -16 -34 2 -25 17 -56 11 -56 -10 0 -7 19 -19 42 -27 54 -17 69
-40 44 -67 -32 -35 -116 -20 -116 20 0 14 16 11 30 -7 17 -20 64 -14 68 8 2
12 -7 20 -36 28 -22 5 -45 16 -51 24 -15 18 -4 45 23 56 29 12 31 12 61 -2z
m-285 -28 c0 -16 4 -30 8 -30 5 0 21 14 37 30 16 17 35 30 44 30 10 0 6 -9
-14 -30 -31 -32 -32 -23 21 -97 28 -39 -5 -27 -41 14 -35 41 -55 38 -55 -8 0
-16 -4 -29 -10 -29 -6 0 -10 32 -10 75 0 43 4 75 10 75 6 0 10 -13 10 -30z
m444 -28 c10 -29 22 -52 26 -52 4 0 16 23 27 52 18 46 43 76 43 50 0 -21 -60
-142 -70 -142 -9 0 -48 78 -65 130 -5 16 -3 21 6 18 8 -3 22 -28 33 -56z"/>
<path d="M1591 2218 c1 -7 5 -24 9 -38 8 -24 8 -24 9 7 1 17 -3 35 -9 38 -5 3
-10 0 -9 -7z"/>
<path d="M1236 1925 c-9 -26 -7 -32 5 -12 6 10 9 21 6 23 -2 3 -7 -2 -11 -11z"/>
<path d="M1211 1859 c-6 -18 -9 -34 -7 -36 2 -2 9 10 15 28 6 18 9 34 7 36 -2
2 -9 -10 -15 -28z"/>
<path d="M1186 1795 c-9 -26 -7 -32 5 -12 6 10 9 21 6 23 -2 3 -7 -2 -11 -11z"/>
<path d="M1122 1748 c-11 -29 -25 -65 -31 -80 -8 -23 -8 -28 4 -28 8 0 12 6
10 13 -3 7 6 41 20 76 14 36 23 66 21 68 -2 3 -13 -20 -24 -49z"/>
<path d="M1161 1729 c-13 -39 -14 -49 -2 -49 6 0 9 8 9 18 -1 9 2 27 6 40 11
34 -1 26 -13 -9z"/>
<path d="M1198 1693 c12 -2 30 -2 40 0 9 3 -1 5 -23 4 -22 0 -30 -2 -17 -4z"/>
<path d="M1437 880 c-3 -8 -10 -28 -15 -45 l-9 -30 -12 38 c-7 20 -17 37 -22
37 -5 0 -1 -21 9 -47 10 -27 22 -47 27 -46 11 1 37 83 31 98 -2 5 -6 3 -9 -5z"/>
<path d="M1470 841 c0 -28 5 -51 10 -51 6 0 10 20 10 44 0 25 -4 48 -10 51 -6
4 -10 -13 -10 -44z"/>
<path d="M1517 883 c-13 -12 -7 -44 8 -49 23 -9 18 -34 -7 -34 -21 -1 -21 -2
-5 -11 13 -8 22 -7 33 1 19 17 18 34 -6 55 -19 17 -18 41 1 30 5 -4 9 -1 9 4
0 12 -23 15 -33 4z"/>
<path d="M1587 884 c-4 -4 -7 -28 -6 -53 0 -38 2 -42 9 -23 13 30 40 29 40 -3
0 -14 5 -25 10 -25 6 0 10 24 9 53 0 45 -2 49 -11 29 -13 -27 -30 -24 -38 7
-3 12 -8 19 -13 15z"/>
<path d="M1682 831 c3 -58 21 -78 32 -36 9 35 26 32 26 -5 0 -41 16 -38 35 6
20 49 18 78 -3 34 l-17 -35 -3 38 c-4 45 -19 48 -34 6 -12 -34 -20 -31 -26 9
-6 49 -13 37 -10 -17z"/>
<path d="M1265 819 c-4 -27 -4 -53 -1 -56 3 -4 6 1 6 10 0 20 46 24 53 5 3 -8
6 -6 6 4 1 25 -31 88 -45 88 -7 0 -15 -21 -19 -51z m35 0 c0 -5 -4 -9 -10 -9
-5 0 -10 7 -10 16 0 8 5 12 10 9 6 -3 10 -10 10 -16z"/>
<path d="M1225 848 c-2 -7 -6 -26 -7 -43 l-4 -30 -16 38 c-9 20 -22 37 -28 37
-6 0 1 -23 16 -51 14 -29 29 -48 34 -43 10 11 25 104 16 104 -4 0 -9 -6 -11
-12z"/>
<path d="M1812 811 c-28 -50 -29 -65 -1 -49 17 11 22 10 35 -6 13 -19 14 -18
14 15 0 41 -10 79 -19 79 -4 0 -17 -17 -29 -39z m28 -13 c0 -16 -3 -19 -11
-11 -6 6 -8 16 -5 22 11 17 16 13 16 -11z"/>
<path d="M1095 831 c-6 -10 9 -89 19 -98 3 -4 6 6 6 22 0 27 1 27 18 12 25
-23 35 -21 22 2 -5 11 -10 31 -10 45 0 21 -5 26 -24 26 -14 0 -27 -4 -31 -9z
m40 -21 c0 -7 -6 -15 -12 -17 -8 -3 -13 4 -13 17 0 13 5 20 13 18 6 -3 12 -11
12 -18z"/>
<path d="M1890 837 c-10 -11 2 -107 13 -107 14 0 61 79 53 87 -3 3 -13 -8 -23
-26 -24 -41 -31 -39 -35 10 -2 22 -5 39 -8 36z"/>
<path d="M1021 753 c1 -32 3 -51 6 -41 6 22 32 31 49 17 20 -16 17 -4 -8 41
-33 58 -48 52 -47 -17z m29 11 c0 -8 -4 -14 -10 -14 -5 0 -10 9 -10 21 0 11 5
17 10 14 6 -3 10 -13 10 -21z"/>
<path d="M1976 802 c-3 -5 -8 -29 -11 -53 -8 -53 9 -34 20 24 7 35 3 48 -9 29z"/>
<path d="M2006 752 c-16 -56 -14 -62 24 -62 55 0 66 75 15 98 -24 11 -25 10
-39 -36z m54 -7 c0 -27 -26 -53 -41 -38 -14 14 9 73 27 66 8 -3 14 -15 14 -28z"/>
<path d="M947 779 c-25 -14 -21 -38 8 -51 29 -13 33 -34 8 -42 -11 -3 -7 -4 7
-3 36 3 41 43 6 57 -28 10 -34 26 -13 33 6 2 10 7 7 10 -3 3 -13 1 -23 -4z"/>
<path d="M2099 712 c-2 -28 -1 -52 4 -52 4 0 7 4 7 9 0 5 12 23 26 40 14 17
21 31 15 31 -5 0 -13 -4 -16 -10 -10 -17 -23 -11 -27 13 -2 12 -6 -2 -9 -31z"/>
<path d="M868 744 c-9 -8 22 -94 33 -94 12 0 12 -3 -9 53 -10 26 -21 45 -24
41z"/>
<path d="M791 711 c-12 -8 -13 -16 -3 -50 15 -50 28 -58 53 -35 46 42 2 118
-50 85z m49 -30 c11 -22 4 -51 -14 -51 -13 0 -37 55 -28 64 11 12 32 5 42 -13z"/>
<path d="M2156 686 c-32 -43 -32 -48 0 -40 21 5 26 2 32 -17 6 -23 6 -23 13 6
20 89 1 110 -45 51z m30 -23 c-11 -11 -19 6 -11 24 8 17 8 17 12 0 3 -10 2
-21 -1 -24z"/>
<path d="M2236 655 c-20 -47 -20 -61 0 -69 24 -9 28 -7 14 9 -9 11 -9 22 0 50
16 49 5 56 -14 10z"/>
<path d="M714 633 c3 -21 6 -47 6 -58 0 -18 1 -18 16 4 11 15 23 21 35 18 25
-7 24 -2 -7 39 -36 47 -59 46 -50 -3z m36 -14 c0 -5 -4 -9 -10 -9 -5 0 -10 7
-10 16 0 8 5 12 10 9 6 -3 10 -10 10 -16z"/>
<path d="M2302 617 c-37 -38 -40 -47 -11 -40 15 4 22 0 26 -16 9 -34 20 -24
28 25 9 62 -4 71 -43 31z m28 -12 c0 -8 -7 -15 -16 -15 -14 0 -14 3 -4 15 7 8
14 15 16 15 2 0 4 -7 4 -15z"/>
<path d="M661 618 c-1 -29 -16 -38 -24 -15 -2 6 -7 9 -11 5 -8 -6 30 -88 40
-88 4 0 3 11 0 26 -6 22 -5 24 13 15 31 -17 38 -12 14 8 -12 10 -23 31 -26 47
l-4 29 -2 -27z"/>
<path d="M2370 598 c0 -18 -3 -44 -7 -58 -5 -22 -1 -20 30 15 19 22 33 42 31
44 -2 3 -10 -1 -16 -7 -18 -18 -31 -14 -25 8 3 11 1 23 -4 26 -5 3 -9 -10 -9
-28z"/>
<path d="M2434 558 c-46 -53 -49 -58 -23 -56 15 2 27 -4 35 -21 11 -21 12 -20
19 29 9 62 -3 80 -31 48z m19 -29 c-4 -13 -9 -17 -15 -11 -11 11 -3 32 12 32
4 0 6 -9 3 -21z"/>
</g>
</svg>
